<svg version="1.1" id="Logo" xmlns="http://www.w3.org/2000/svg" x="0" y="0" viewBox="0 0 137 28" xml:space="preserve"><style>.st0{enable-background:new}.st1{fill:#fefefe}.st2{fill:#65e496}</style><g class="st0"><path class="st1" d="M46.9 2.5c2.3 0 4.2.5 5.5 1.4s2 2.3 2 4.1c0 .9-.2 1.7-.7 2.5-.5.7-1.2 1.3-2.1 1.6 1.2.3 2.1.8 2.7 1.6.6.8.9 1.8.9 2.9 0 1.9-.6 3.3-1.9 4.3-1.3 1-3 1.5-5.3 1.5h-9.8V20l2.1-.4V5.3l-2.1-.4V2.5h8.7zm-2.7 8.3h2.9c1.1 0 1.9-.2 2.5-.7s.9-1.1.9-1.9c0-.9-.3-1.6-.9-2-.6-.4-1.4-.7-2.6-.7h-2.7v5.3zm0 2.8v5.7h3.7c1.1 0 1.9-.2 2.4-.7.6-.5.8-1.1.8-2 0-1-.2-1.7-.7-2.2-.5-.5-1.2-.8-2.2-.8h-4zM64.6 2.5v2.4l-2.1.4v10.4c0 1.3.4 2.3 1.1 2.9.7.7 1.7 1 2.9 1s2.2-.3 2.9-1c.7-.6 1.1-1.6 1.1-3V5.3l-2.1-.4V2.5h8.2v2.4l-2.1.4v10.4c0 2.2-.7 4-2.2 5.2-1.5 1.2-3.4 1.8-5.8 1.8s-4.3-.6-5.8-1.8c-1.5-1.2-2.2-2.9-2.2-5.2V5.3l-2.1-.4V2.5h8.2zM77.8 20l2.1-.4V5.3l-2.1-.4V2.5h8.1v2.4l-2 .4v5.3h1.7L89.4 5l-1.2-.2V2.5h7.9v2.4l-2.1.4-4.9 6.5 5.5 7.9 2 .3v2.4h-7.9V20l1.2-.2-3.8-5.8h-2.2v5.5l2 .4v2.4h-8.1V20z"/></g><g class="st0"><path class="st2" d="M110.6 13.6h-6.7v5.7h6.4l.2-2.4h3v5.4H97.8V20l2.1-.4V5.3l-2.1-.4V2.5h15.7V8h-3.1l-.2-2.4h-6.4v5h6.7v3zM128.5 13.6h-6.7v5.7h6.4l.2-2.4h3v5.4h-15.8V20l2.1-.4V5.3l-2.1-.4V2.5h15.7V8h-3.1l-.2-2.4h-6.4v5h6.7v3z"/></g><g id="logo_icon" fill-rule="evenodd" clip-rule="evenodd"><path id="Rectangle_10_copy_3" d="M28 28L0 0h28v28z" fill="#65e496"/><path d="M28 0L0 28V0h28z" fill="#44444f"/></g></svg>