<?xml version="1.0" encoding="utf-8"?>
<!-- Generator: Adobe Illustrator 24.1.0, SVG Export Plug-In . SVG Version: 6.00 Build 0)  -->
<svg version="1.1" id="Logo" xmlns="http://www.w3.org/2000/svg" xmlns:xlink="http://www.w3.org/1999/xlink" x="0px" y="0px"
	 viewBox="0 0 137 28" style="enable-background:new 0 0 137 28;" xml:space="preserve">
<style type="text/css">
	.st0{enable-background:new    ;}
	.st1{fill:#FEFEFE;}
	.st2{fill:#65E496;}
	.st3{fill-rule:evenodd;clip-rule:evenodd;fill:#65E496;}
	.st4{fill-rule:evenodd;clip-rule:evenodd;fill:#44444F;}
</style>
<g class="st0">
	<path class="st1" d="M46.9,2.5c2.3,0,4.2,0.5,5.5,1.4s2,2.3,2,4.1c0,0.9-0.2,1.7-0.7,2.5c-0.5,0.7-1.2,1.3-2.1,1.6
		c1.2,0.3,2.1,0.8,2.7,1.6c0.6,0.8,0.9,1.8,0.9,2.9c0,1.9-0.6,3.3-1.9,4.3c-1.3,1-3,1.5-5.3,1.5h-9.8V20l2.1-0.4V5.3l-2.1-0.4V2.5
		h2.1H46.9z M44.2,10.8h2.9c1.1,0,1.9-0.2,2.5-0.7s0.9-1.1,0.9-1.9c0-0.9-0.3-1.6-0.9-2c-0.6-0.4-1.4-0.7-2.6-0.7h-2.7V10.8z
		 M44.2,13.6v5.7h3.7c1.1,0,1.9-0.2,2.4-0.7c0.6-0.5,0.8-1.1,0.8-2c0-1-0.2-1.7-0.7-2.2c-0.5-0.5-1.2-0.8-2.2-0.8H44.2z"/>
	<path class="st1" d="M64.6,2.5v2.4l-2.1,0.4v10.4c0,1.3,0.4,2.3,1.1,2.9c0.7,0.7,1.7,1,2.9,1c1.2,0,2.2-0.3,2.9-1
		c0.7-0.6,1.1-1.6,1.1-3V5.3l-2.1-0.4V2.5h8.2v2.4l-2.1,0.4v10.4c0,2.2-0.7,4-2.2,5.2c-1.5,1.2-3.4,1.8-5.8,1.8
		c-2.4,0-4.3-0.6-5.8-1.8c-1.5-1.2-2.2-2.9-2.2-5.2V5.3l-2.1-0.4V2.5h2.1h4H64.6z"/>
	<path class="st1" d="M77.8,20l2.1-0.4V5.3l-2.1-0.4V2.5h8.1v2.4l-2,0.4v5.3h1.7l3.8-5.6l-1.2-0.2V2.5h7.9v2.4L94,5.3l-4.9,6.5
		l5.5,7.9l2,0.3v2.4h-7.9V20l1.2-0.2l-3.8-5.8h-2.2v5.5l2,0.4v2.4h-8.1V20z"/>
</g>
<g class="st0">
	<path class="st2" d="M110.6,13.6h-6.7v5.7h6.4l0.2-2.4h3v5.4H97.8V20l2.1-0.4V5.3l-2.1-0.4V2.5h2.1h13.6v5.5h-3.1l-0.2-2.4h-6.4v5
		h6.7V13.6z"/>
	<path class="st2" d="M128.5,13.6h-6.7v5.7h6.4l0.2-2.4h3v5.4h-15.8V20l2.1-0.4V5.3l-2.1-0.4V2.5h2.1h13.6v5.5h-3.1l-0.2-2.4h-6.4v5
		h6.7V13.6z"/>
</g>
<g id="logo_icon">
	<path id="Rectangle_10_copy_3" class="st3" d="M28,28L0,0h28V28z"/>
	<path class="st4" d="M28,0L0,28V0H28z"/>
</g>
</svg>
